# Blender v2.75 (sub 0) OBJ File: 'boat.blend'
# www.blender.org
mtllib boat.mtl
o Cube
v -1.000000 1.000000 -1.000000
v 1.000001 1.000000 -0.999999
v 1.000000 1.000000 1.000000
v -1.000000 1.000000 1.000000
v 0.000000 -0.262977 -1.000000
v 1.000000 -0.262977 0.000000
v 0.000000 1.000000 -1.896115
v 1.000000 1.000000 0.000000
v -1.000000 -0.262977 -0.000000
v -1.000000 1.000000 -0.000000
v -0.000000 1.000000 3.980997
v -0.000000 -0.262977 1.000000
vt 0.517630 0.448334
vt 0.707468 0.000261
vt 0.707468 0.528764
vt 0.000261 0.813378
vt 0.000261 0.650134
vt 0.326748 0.650134
vt 0.327270 0.910457
vt 0.558132 0.910457
vt 0.558132 0.679596
vt 0.707990 0.790752
vt 0.871234 0.790752
vt 0.871234 0.996925
vt 0.836495 0.206956
vt 0.999739 0.206956
vt 0.999739 0.413129
vt 0.999739 0.000261
vt 0.999739 0.206434
vt 0.836495 0.206434
vt 0.517108 0.528764
vt 0.517108 0.000261
vt 0.327270 0.448334
vt 0.835973 0.790230
vt 0.707990 0.628590
vt 0.835973 0.527255
vt 0.707990 0.101596
vt 0.835973 0.263236
vt 0.835973 0.000261
vt 0.835973 0.526733
vt 0.835973 0.263758
vt 0.707990 0.425398
vt 0.643785 0.679074
vt 0.326748 0.813378
vt 0.163505 0.959663
vt 0.000261 0.486890
vt 0.326748 0.486890
vt 0.163505 0.000261
vt 0.327270 0.679596
vt 0.707990 0.996925
vt 0.836495 0.000261
vt 0.453426 0.679074
vn 0.758200 -0.600300 0.254400
vn 0.000000 1.000000 0.000000
vn 0.000000 -1.000000 0.000000
vn -0.590100 -0.467200 -0.658500
vn 1.000000 -0.000000 0.000000
vn 0.590100 -0.467200 -0.658500
vn -0.758200 -0.600300 0.254400
vn -1.000000 0.000000 -0.000000
vn 0.617000 -0.488500 0.617000
vn -0.617000 -0.488500 -0.617000
vn 0.617000 -0.488500 -0.617000
vn -0.617000 -0.488500 0.617000
usemtl Material
s off
f 3/1/1 11/2/1 12/3/1
f 1/4/2 10/5/2 8/6/2
f 5/7/3 6/8/3 12/9/3
f 1/10/4 7/11/4 5/12/4
f 2/13/5 8/14/5 6/15/5
f 5/16/6 7/17/6 2/18/6
f 12/19/7 11/20/7 4/21/7
f 6/22/5 8/23/5 3/24/5
f 10/25/8 9/26/8 4/27/8
f 1/28/8 9/29/8 10/30/8
f 6/31/9 3/1/9 12/3/9
f 2/32/2 7/33/2 1/4/2
f 4/34/2 3/35/2 8/6/2
f 8/6/2 2/32/2 1/4/2
f 8/6/2 10/5/2 4/34/2
f 4/34/2 11/36/2 3/35/2
f 9/37/3 5/7/3 12/9/3
f 9/38/10 1/10/10 5/12/10
f 6/39/11 5/16/11 2/18/11
f 9/40/12 12/19/12 4/21/12
